<svg width="417" height="300" viewBox="0 0 417 300" fill="none" xmlns="http://www.w3.org/2000/svg">
<path d="M7.5 147.5L1.5 143V113L3 110.5H7.5V108.5H4V71L11 68.5V66L4 62.5V26.5L11 23.5V6.5L23.5 1.5H88C93.6 3.9 114.333 4.16667 124 4H342L366 39L373 64L371 78L342 104.5L346 117.5L381.5 154L405.5 184.5L415.5 230V240.5L404 249.5V276.5L346.5 290.5V294L338.5 297.5L333.5 290.5L329 268.5L306 248L292 204.5L265 164L247 176.5L209 182L168 179L135.5 143L129 147.5H7.5Z" stroke="#FF0000" stroke-width="3"/>
<path d="M154.5 139C148.1 107.4 174.5 95.1667 188.5 93L185 100L196.5 105C208.9 130.2 210 145.167 209 149.5L220 154C217.6 134 221 106.333 223 95L230.5 100L254 151L250.5 159L238 170H210.5L174.5 165.5L154.5 139Z" stroke="#FF0000" stroke-width="3"/>
</svg>
