<svg width="1445" height="451" viewBox="0 0 1445 451" fill="none" xmlns="http://www.w3.org/2000/svg">
<path d="M17.0258 233.5L21.0258 240H61.0258V233.5V223.5L56.5258 219H17.0258V233.5ZM61.0258 233.5H17.0258M784.026 318.446L881.526 347C890.859 352.333 909.726 362.8 910.526 362C911.326 361.2 942.859 354.667 958.526 351.5L970.026 370L972.526 403.5L982.526 407.5L995.026 449H1002.53L1071.53 424L1084.53 416C1071.19 391.667 1041.93 340.3 1031.53 329.5L1035.03 306.5L1104.53 285.5L1110.03 194.5M775.526 409.225L781.526 410.974L872.526 437.5L875.164 410.974L881.526 347M1355.53 203L1347.53 188C1300.33 184.8 1241.53 188 1218.03 190L1179.53 194.5L1174.03 207H1158.53L1157.03 203H1138.53L1135.53 207L1115.53 205L1109.53 201.5M1179.53 194.5L1183.03 252L1195.03 262H1326.53L1347.53 253.5L1358.53 243.5L1362.03 216.5L1355.53 203M1390.53 376H1422.03L1426.03 382H1438.03L1442.53 373C1442.03 361.833 1439.53 333.7 1433.53 310.5C1427.53 287.3 1437.03 240.5 1442.53 220V207L1438.03 201.5H1390.53L1355.53 203M1390.53 201.5V376M1390.53 376H1377.53L1369.03 390L1350.53 395L1321.53 392.5L1186.53 287L1177.03 267H1158.53L1155.03 271.5H1138.53L1135.53 268.5H1115.53L1105.26 273.392M1109.53 194.5L1093.53 182L1090.03 164.5L1082.53 160H1063.03L1061.53 156H1025.53L1020.53 160V168H969.526V164.5L977.526 157L975.526 154L990.026 152.5V129.5H953.026L957.026 126.5H966.526L969.526 123.5H986.026L1002.03 126.5H1053.03V69H1010.03L984.026 75.5H969.526L964.526 72.5H938.526L935.026 75.5H919.526L916.026 72.5H888.026V62L901.026 60L905.026 51.5V29L902.526 18.5H889.526L883.026 14V5L881.026 2H855.026L850.026 5V11.5H838.526L825.526 9.5H805.526L797.526 11.5V62L805.526 65.5H825.526L845.526 62V72.5C838.526 73.6667 821.626 75.3 810.026 72.5H787.026L781.526 75.5L773.526 74.5L760.526 69H740.526L734.526 62H686.526L683.526 67.5C686.526 79.1667 695.226 108.8 706.026 134L712.026 140H734.526L741.526 133H760.526L773.526 126H781.526L789.526 128V134L745.026 138.5V162L750.526 168H380.026L377.526 164.5H334.026L323.526 159.5H240.526L237.526 161.5H231.026C229.692 168.333 227.826 184.9 231.026 196.5H240.526V208.5L97.5258 210L94.0258 204H76.5258L74.5258 207H70.5258L69.5258 204H5.52576L2.02576 225.5L5.52576 247.5H69.5258L70.5258 246H74.5258L76.5258 248H94.0258L97.5258 242.5H262.026V266L277.526 276H285.526L287.526 283H741.526V306L752.026 309.075M784.026 318.446L779.026 316.982L752.026 309.075M752.026 309.075L749.707 380.5M784.026 318.446L782.255 384M781.526 410.974L782.255 384M775.526 409.225L749.026 401.5L749.707 380.5M775.526 409.225L776.35 387.5M779.026 316.982L776.35 387.5M749.707 380.5L776.35 387.5M782.255 384L875.164 410.974M285.526 210H745.026L703.526 258H285.526V210ZM757.026 210L731.026 242H1023.53L1063.03 210H910.026H757.026Z" stroke="#FF0000" stroke-width="4"/>
</svg>
